# xmcd
#
# Track frame offsets: 
#        150
#        10989
#        32722
#        52343
#        62269
#        95060
#        108115
#        116736
#        136281
#        154293
#        170936
#        185912
#        210138
#        224724
#        237321
#        248264
#        265068
#        278874
#        288753
#        302542
#        318940
#        336442
#
# Disc length: 4731 seconds
#
# Revision: 0
# Processed by: cddbd v1.5.2PL0 Copyright (c) Steve Scherf et al.
# Submitted via: ExactAudioCopy v0.95b4
#
DISCID=47127916
DTITLE=Jellybread - Jellybread-The Complete Blue Horizon Sessions
DYEAR=1970
DGENRE=Blues
TTITLE0=River's Invitation
TTITLE1=I Pity The Fool
TTITLE2=Never Say No
TTITLE3=Chairman Mao's Boogie
TTITLE4=Evening
TTITLE5=I've Got To Forget You
TTITLE6=Boogie Sandwich
TTITLE7=Rusty Blade
TTITLE8=No Brag Just Facts
TTITLE9=No One Else
TTITLE10=Don't Pay Them No Mind
TTITLE11=Comment
TTITLE12=Funky Wasp
TTITLE13=Rockin' Pneumonia And The Boogie Woogie Flu
TTITLE14=Readin' The Meters
TTITLE15=Old Man Hank
TTITLE16=Faded Grace
TTITLE17=That's Alright
TTITLE18=Don't Want No Woman
TTITLE19=Drivin' Wheel
TTITLE20=Never Say No
TTITLE21=Sugar Mama
EXTD=
EXTT0=
EXTT1=
EXTT2=
EXTT3=
EXTT4=
EXTT5=
EXTT6=
EXTT7=
EXTT8=
EXTT9=
EXTT10=
EXTT11=
EXTT12=
EXTT13=
EXTT14=
EXTT15=
EXTT16=
EXTT17=
EXTT18=
EXTT19=
EXTT20=
EXTT21=
PLAYORDER=
